# Blender v2.76 (sub 0) OBJ File: ''
# www.blender.org
mtllib AK47.mtl
o Cube_Cube.001
v -1.116560 -3.074816 -29.744610
v -1.116560 -0.842117 -29.744610
v 1.116139 -3.074816 -29.744585
v 1.116139 -0.842117 -29.744585
v -1.116884 -6.993566 -0.006606
v -1.116884 -2.536391 -0.006606
v 1.115816 -6.993566 -0.006582
v 1.115816 -2.536391 -0.006582
v 1.115993 -0.842117 -16.310402
v 1.115975 -3.074816 -14.609220
v -1.116706 -0.842117 -16.310427
v -1.116725 -3.074816 -14.609243
v 1.116045 -3.074816 -21.113987
v -1.116660 -0.842117 -20.574642
v 1.116039 -0.842117 -20.574617
v -1.116654 -3.074816 -21.114012
v 1.115920 -0.842117 -9.593311
v -1.116780 -3.074816 -9.593338
v 1.115920 -3.074816 -9.593311
v -1.116780 -0.842117 -9.593338
v 1.116103 -3.074816 -26.386038
v -1.116597 -0.842117 -26.386065
v 1.116103 -0.842117 -26.386038
v -1.116597 -3.074816 -26.386065
v 1.116005 -0.842117 -17.433680
v -1.116691 -3.074816 -17.755466
v 1.116009 -3.074816 -17.755442
v -1.116694 -0.842117 -17.433704
v 1.115938 -3.074816 -11.250673
v -1.116743 -0.842117 -15.660315
v 1.115956 -0.842117 -15.660290
v -1.116762 -3.074816 -11.250698
v 1.115883 -2.204421 -6.234768
v -1.116816 -5.544919 -6.234792
v 1.115883 -5.544919 -6.234768
v -1.116816 -2.204421 -6.234792
v 1.115936 -7.229612 -11.090520
v 1.115959 -7.229612 -13.152125
v -1.116741 -7.229612 -13.152150
v -1.116763 -7.229612 -11.090544
v 1.116010 -6.156748 -17.827497
v 1.116045 -5.183486 -21.041933
v -1.116655 -5.183486 -21.041956
v -1.116690 -6.156748 -17.827522
v 1.116019 -8.809140 -18.665884
v 1.116051 -7.213923 -21.621407
v -1.116649 -7.213923 -21.621429
v -1.116681 -8.809140 -18.665909
v 1.116030 -10.668760 -19.688122
v 1.116059 -8.678214 -22.393221
v -1.116640 -8.678214 -22.393246
v -1.116670 -10.668760 -19.688147
v 0.269782 -0.351944 -14.525027
v 0.269773 -0.351944 -13.437025
v -0.270605 -0.351944 -13.437033
v -0.270597 -0.351944 -14.525036
v 0.269778 -0.351944 -13.981027
v -0.000417 -0.351944 -13.437029
v -0.270601 -0.351944 -13.981033
v -0.000406 -0.351944 -14.525031
v -0.000412 -0.351944 -13.981030
v 0.269775 -0.351944 -13.709025
v -0.182021 -0.351944 -13.437031
v -0.270599 -0.351944 -14.253035
v -0.182010 -0.351944 -14.525033
v 0.269780 -0.351944 -14.253027
v 0.181186 -0.351944 -13.437027
v -0.270603 -0.351944 -13.709033
v 0.181198 -0.351944 -14.525029
v -0.000409 -0.351944 -14.253031
v -0.000415 -0.351944 -13.709029
v -0.182016 -0.351944 -13.981032
v 0.181192 -0.351944 -13.981029
v 0.181189 -0.351944 -13.709027
v -0.182019 -0.351944 -13.709031
v -0.182013 -0.351944 -14.253033
v 0.181195 -0.351944 -14.253029
v 0.269775 0.152414 -13.709025
v 0.269773 0.152414 -13.437025
v -0.182021 0.152414 -13.437031
v -0.270605 0.152414 -13.437033
v -0.270599 0.152414 -14.253035
v -0.270597 0.152414 -14.525036
v -0.182010 0.152414 -14.525033
v 0.269780 0.152414 -14.253027
v 0.269778 0.152414 -13.981027
v -0.270603 0.152414 -13.709033
v -0.270601 0.152414 -13.981033
v -0.182016 0.152414 -13.981032
v 0.269782 0.152414 -14.525027
v 0.181186 0.152414 -13.437027
v 0.181198 0.152414 -14.525029
v 0.181192 0.152414 -13.981029
v 0.181189 0.152414 -13.709027
v -0.182019 0.152414 -13.709031
v -0.182013 0.152414 -14.253033
v 0.181195 0.152414 -14.253029
v -0.076696 -0.603874 -28.404610
v 0.076246 -0.603874 -28.404610
v -0.076703 -0.603874 -27.726040
v 0.076239 -0.603874 -27.726036
v -0.043468 -0.000206 -28.404610
v 0.043016 -0.000206 -28.404610
v -0.043473 -0.000206 -27.726040
v 0.043011 -0.000206 -27.726036
vn 0.000000 0.000000 -1.000000
vn -1.000000 0.000000 -0.000000
vn 0.223300 0.974700 0.000000
vn 0.000000 1.000000 -0.000000
vn -1.000000 -0.000000 -0.000100
vn 0.000000 -1.000000 0.000000
vn 1.000000 0.000000 0.000000
vn 0.000000 -0.330900 -0.943700
vn 0.501300 0.865300 0.000000
vn -0.000000 0.038500 0.999300
vn -0.000000 -0.023400 0.999700
vn 0.000000 -0.034200 -0.999400
vn -0.000000 -0.481700 0.876300
vn -0.000000 -0.301400 0.953500
vn 0.000000 0.274400 -0.961600
vn 0.000000 -0.805400 -0.592700
vn 0.000000 0.466300 -0.884600
vn 0.000000 0.918100 -0.396400
vn -0.000000 0.992000 0.126500
vn -0.501300 0.865300 -0.000000
vn 0.998500 0.055000 0.000000
vn 0.000000 0.984600 -0.175000
vn -0.223300 0.974700 -0.000000
vn -0.000000 0.984600 0.175000
vn -0.998500 0.055000 -0.000000
vn 1.000000 0.000000 0.000100
vn -0.000000 0.000000 1.000000
vn 0.000000 -0.974000 -0.226500
vn -0.000000 0.926700 0.375900
vn -0.000000 0.998600 0.053200
vn 0.000000 -0.805600 -0.592500
usemtl Material.001
s off
f 4//1 3//1 1//1
f 2//2 1//2 24//2
f 4//3 99//3 101//3
f 31//4 9//4 11//4
f 30//5 11//5 12//5
f 29//6 19//6 18//6
f 17//7 19//7 29//7
f 3//6 21//6 24//6
f 23//7 21//7 3//7
f 27//7 41//7 42//7
f 31//7 29//7 10//7
f 10//8 38//8 39//8
f 20//2 30//2 32//2
f 31//9 57//9 62//9
f 38//6 37//6 40//6
f 29//7 37//7 38//7
f 32//10 40//10 37//10
f 32//2 12//2 39//2
f 41//7 45//7 46//7
f 26//11 44//11 41//11
f 13//12 42//12 43//12
f 26//2 16//2 43//2
f 48//13 52//13 49//13
f 41//14 44//14 48//14
f 42//15 46//15 47//15
f 44//2 43//2 47//2
f 50//16 49//16 52//16
f 46//17 50//17 51//17
f 48//2 47//2 51//2
f 45//7 49//7 50//7
f 56//1 83//1 84//1
f 30//18 60//18 31//18
f 17//19 58//19 20//19
f 55//20 68//20 30//20
f 76//4 70//4 60//4
f 71//4 61//4 72//4
f 77//2 97//2 92//2
f 71//4 74//4 73//4
f 67//4 74//4 71//4
f 68//2 87//2 88//2
f 72//7 89//7 95//7
f 64//2 82//2 83//2
f 63//4 58//4 71//4
f 57//7 86//7 78//7
f 61//4 70//4 76//4
f 77//4 69//4 60//4
f 73//4 77//4 70//4
f 69//1 92//1 90//1
f 97//4 85//4 90//4
f 94//4 78//4 86//4
f 91//4 79//4 78//4
f 87//4 95//4 89//4
f 81//4 80//4 95//4
f 82//4 96//4 84//4
f 88//4 89//4 96//4
f 93//4 86//4 85//4
f 59//2 88//2 82//2
f 75//7 95//7 80//7
f 73//2 93//2 97//2
f 53//7 90//7 85//7
f 74//2 94//2 93//2
f 65//7 84//7 96//7
f 67//2 91//2 94//2
f 55//2 81//2 87//2
f 76//7 96//7 89//7
f 62//7 78//7 79//7
f 66//7 85//7 86//7
f 101//21 99//21 103//21
f 2//22 98//22 99//22
f 22//23 100//23 98//23
f 22//24 23//24 101//24
f 104//4 105//4 103//4
f 98//1 102//1 103//1
f 98//25 100//25 104//25
f 2//1 4//1 1//1
f 22//2 2//2 24//2
f 23//3 4//3 101//3
f 30//4 31//4 11//4
f 32//2 30//2 12//2
f 32//6 29//6 18//6
f 31//7 17//7 29//7
f 1//6 3//6 24//6
f 4//7 23//7 3//7
f 13//7 27//7 42//7
f 9//26 31//26 10//26
f 12//8 10//8 39//8
f 18//2 20//2 32//2
f 54//9 17//9 31//9
f 31//9 53//9 66//9
f 62//9 54//9 31//9
f 31//9 66//9 57//9
f 39//6 38//6 40//6
f 10//7 29//7 38//7
f 29//10 32//10 37//10
f 40//2 32//2 39//2
f 42//7 41//7 46//7
f 27//11 26//11 41//11
f 16//12 13//12 43//12
f 44//2 26//2 43//2
f 45//13 48//13 49//13
f 45//14 41//14 48//14
f 43//15 42//15 47//15
f 48//2 44//2 47//2
f 51//16 50//16 52//16
f 47//17 46//17 51//17
f 52//2 48//2 51//2
f 46//7 45//7 50//7
f 65//1 56//1 84//1
f 53//18 31//18 69//18
f 30//18 56//18 65//18
f 65//18 60//18 30//18
f 69//18 31//18 60//18
f 55//19 20//19 63//19
f 17//19 54//19 67//19
f 67//19 58//19 17//19
f 63//19 20//19 58//19
f 56//20 30//20 64//20
f 20//20 55//20 30//20
f 68//20 59//20 30//20
f 64//20 30//20 59//20
f 65//4 76//4 60//4
f 75//4 71//4 72//4
f 69//2 77//2 92//2
f 61//4 71//4 73//4
f 58//4 67//4 71//4
f 59//2 68//2 88//2
f 75//7 72//7 95//7
f 56//2 64//2 83//2
f 75//4 63//4 71//4
f 62//7 57//7 78//7
f 72//4 61//4 76//4
f 70//4 77//4 60//4
f 61//4 73//4 70//4
f 53//1 69//1 90//1
f 92//4 97//4 90//4
f 93//4 94//4 86//4
f 94//4 91//4 78//4
f 88//4 87//4 89//4
f 87//4 81//4 95//4
f 83//4 82//4 84//4
f 82//4 88//4 96//4
f 97//4 93//4 85//4
f 64//2 59//2 82//2
f 63//7 75//7 80//7
f 77//2 73//2 97//2
f 66//7 53//7 85//7
f 73//2 74//2 93//2
f 76//7 65//7 96//7
f 74//2 67//2 94//2
f 68//2 55//2 87//2
f 72//7 76//7 89//7
f 54//7 62//7 79//7
f 57//7 66//7 86//7
f 105//21 101//21 103//21
f 4//22 2//22 99//22
f 2//23 22//23 98//23
f 100//24 22//24 101//24
f 102//4 104//4 103//4
f 99//1 98//1 103//1
f 102//25 98//25 104//25
usemtl Material.002
f 8//7 7//7 35//7
f 6//27 5//27 7//27
f 35//28 7//28 5//28
f 26//6 27//6 10//6
f 9//7 10//7 27//7
f 23//7 15//7 13//7
f 21//6 13//6 16//6
f 25//4 15//4 14//4
f 14//2 16//2 26//2
f 36//2 20//2 18//2
f 36//29 33//29 17//29
f 14//4 15//4 23//4
f 22//2 24//2 16//2
f 11//2 28//2 26//2
f 9//4 25//4 28//4
f 15//7 25//7 27//7
f 8//30 33//30 36//30
f 6//2 36//2 34//2
f 19//31 35//31 34//31
f 33//7 35//7 19//7
f 33//7 8//7 35//7
f 8//27 6//27 7//27
f 34//28 35//28 5//28
f 12//6 26//6 10//6
f 25//7 9//7 27//7
f 21//7 23//7 13//7
f 24//6 21//6 16//6
f 28//4 25//4 14//4
f 28//2 14//2 26//2
f 34//2 36//2 18//2
f 20//29 36//29 17//29
f 22//4 14//4 23//4
f 14//2 22//2 16//2
f 12//2 11//2 26//2
f 11//4 9//4 28//4
f 13//7 15//7 27//7
f 6//30 8//30 36//30
f 5//2 6//2 34//2
f 18//31 19//31 34//31
f 17//7 33//7 19//7
usemtl Material.003
f 63//27 80//27 81//27
f 54//27 79//27 91//27
f 101//27 105//27 104//27
f 55//27 63//27 81//27
f 67//27 54//27 91//27
f 100//27 101//27 104//27
