# Blender v2.75 (sub 0) OBJ File: ''
# www.blender.org
mtllib arm.mtl
o Cube_Cube.001_Cube_Cube.002
v -0.108825 -0.122571 -2.740084
v -0.559663 0.838355 -0.622007
v -0.630619 0.070273 -0.288648
v 0.262230 0.838355 -0.447065
v 0.191273 0.070273 -0.113706
v 0.713067 -0.122571 -2.565142
v 0.642111 -0.890653 -2.231783
v -0.179782 -0.890653 -2.406725
v 0.321414 -0.693111 -5.157545
v 0.296434 0.312781 -5.040189
v -0.222788 0.015290 -2.600835
v 1.312239 -0.693111 -4.946646
v 1.287260 0.312781 -4.829290
v 0.670935 -0.801540 -1.933739
v 0.730019 0.102278 -2.211322
v 0.768038 0.015290 -2.389935
v -0.319891 -0.801540 -2.144639
v -0.260806 0.102278 -2.422221
v -0.248689 -0.990601 -2.479151
v 0.742137 -0.990601 -2.268252
vn 0.978100 -0.000000 0.208200
vn 0.190300 -0.405600 -0.894000
vn -0.978100 0.000000 -0.208200
vn -0.190300 0.405600 0.894000
vn 0.084400 0.914100 -0.396700
vn -0.084400 -0.914100 0.396700
vn -0.206700 -0.118400 0.971200
vn 0.198600 -0.299600 -0.933200
vn 0.024700 -0.993000 -0.115800
vn -0.022500 0.994200 0.105600
vn 0.100700 0.875200 -0.473200
vn -0.089500 -0.902800 0.420600
usemtl Material.001
s 1
f 1//1 2//1 3//1
f 4//2 5//2 3//2
f 4//3 6//3 7//3
f 1//4 8//4 7//4
f 3//5 5//5 7//5
f 4//6 2//6 1//6
f 8//1 1//1 3//1
f 2//2 4//2 3//2
f 5//3 4//3 7//3
f 6//4 1//4 7//4
f 8//5 3//5 7//5
f 6//6 4//6 1//6
usemtl Material.002
f 9//1 10//1 11//1
f 12//7 13//7 10//7
f 14//3 15//3 16//3
f 17//8 18//8 15//8
f 10//9 13//9 16//9
f 12//10 9//10 19//10
f 20//11 19//11 17//11
f 11//12 16//12 15//12
f 12//3 20//3 16//3
f 17//1 19//1 11//1
f 19//1 9//1 11//1
f 9//7 12//7 10//7
f 20//3 14//3 16//3
f 14//8 17//8 15//8
f 11//9 10//9 16//9
f 20//10 12//10 19//10
f 14//11 20//11 17//11
f 18//12 11//12 15//12
f 13//3 12//3 16//3
f 18//1 17//1 11//1
o Cube_Cube.000
v -1.995736 0.349960 -1.607717
v -0.813002 1.151021 0.282343
v -0.644416 0.360459 0.511911
v -0.104686 1.170910 -0.169326
v 0.063899 0.380347 0.060242
v -1.287420 0.369849 -2.059386
v -1.118834 -0.420714 -1.829818
v -1.827151 -0.440603 -1.378149
v -3.395676 -0.042877 -3.666986
v -3.311946 0.951380 -3.491898
v -1.976635 0.473869 -1.418864
v -2.541771 -0.018900 -4.211492
v -2.458041 0.975357 -4.036404
v -0.887548 -0.350433 -1.631905
v -1.022879 0.571335 -1.803545
v -1.122730 0.497846 -1.963370
v -1.741452 -0.374410 -1.087399
v -1.876783 0.547359 -1.259039
v -1.928957 -0.538114 -1.388656
v -1.075052 -0.514137 -1.933162
vn 0.842900 0.023700 -0.537500
vn -0.499200 -0.338100 -0.797800
vn -0.842900 -0.023700 0.537500
vn 0.499200 0.338100 0.797800
vn -0.200600 0.940800 -0.273200
vn 0.200600 -0.940800 0.273200
vn 0.531600 -0.190100 0.825400
vn -0.518700 -0.229500 -0.823600
vn -0.082700 -0.981500 -0.172800
vn 0.077100 0.983400 0.164200
vn -0.243400 0.907700 -0.341800
vn 0.214000 -0.931400 0.294600
usemtl Material.001
s 1
f 21//13 22//13 23//13
f 24//14 25//14 23//14
f 24//15 26//15 27//15
f 21//16 28//16 27//16
f 23//17 25//17 27//17
f 24//18 22//18 21//18
f 28//13 21//13 23//13
f 22//14 24//14 23//14
f 25//15 24//15 27//15
f 26//16 21//16 27//16
f 28//17 23//17 27//17
f 26//18 24//18 21//18
usemtl Material.002
f 29//13 30//13 31//13
f 32//19 33//19 30//19
f 34//15 35//15 36//15
f 37//20 38//20 35//20
f 30//21 33//21 36//21
f 32//22 29//22 39//22
f 40//23 39//23 37//23
f 31//24 36//24 35//24
f 32//15 40//15 36//15
f 37//13 39//13 31//13
f 39//13 29//13 31//13
f 29//19 32//19 30//19
f 40//15 34//15 36//15
f 34//20 37//20 35//20
f 31//21 30//21 36//21
f 40//22 32//22 39//22
f 34//23 40//23 37//23
f 38//24 31//24 35//24
f 33//15 32//15 36//15
f 38//13 37//13 31//13
