# Blender v2.76 (sub 0) OBJ File: ''
# www.blender.org
mtllib AWP.mtl
o Cube_Cube.001
v -1.000000 -3.665328 -9.695333
v -1.000000 -1.665328 -9.695333
v 1.000000 -3.665328 -9.695333
v 1.000000 -1.665328 -9.695333
v -1.000000 -6.384382 -0.002623
v -1.000000 -2.918104 -0.002623
v 1.000000 -6.384382 -0.002623
v 1.000000 -2.918104 -0.002623
v -1.000000 -1.665328 -23.817524
v -1.000000 -3.665328 -23.817524
v 1.000000 -1.665328 -23.817524
v 1.000000 -3.665328 -23.817524
v -1.000000 -1.665328 -30.878620
v 1.000000 -3.665328 -30.878620
v -1.000000 -3.665328 -30.878620
v 1.000000 -1.665328 -30.878620
v -1.000000 -3.665328 -16.753431
v 1.000000 -1.665328 -16.753431
v -1.000000 -1.665328 -16.753431
v 1.000000 -3.665328 -16.753431
v -1.000000 -1.665328 -34.409164
v 1.000000 -3.665328 -34.409164
v -1.000000 -3.665328 -34.409164
v 1.000000 -1.665328 -34.409164
v -1.000000 -3.665328 -27.352262
v 1.000000 -1.665328 -27.352262
v -1.000000 -1.665328 -27.352262
v 1.000000 -3.665328 -27.352262
v -1.000000 -1.665328 -20.285479
v 1.000000 -3.665328 -20.285479
v -1.000000 -3.665328 -20.285479
v 1.000000 -1.665328 -20.285479
v -1.000000 -3.665328 -13.224382
v 1.000000 -1.665328 -13.224382
v -1.000000 -1.665328 -13.224382
v 1.000000 -3.665328 -13.224382
v 1.000000 -7.909142 -13.108671
v 1.000000 -7.909142 -14.563087
v -1.000000 -7.909142 -14.563087
v -1.000000 -7.909142 -13.108671
v 1.000000 -6.272623 -20.310049
v 1.000000 -6.202026 -23.792953
v -1.000000 -6.202026 -23.792953
v -1.000000 -6.272623 -20.310049
v 1.000000 -0.924303 -20.285479
v 1.000000 -0.924303 -16.753431
v -1.000000 -0.924303 -16.753431
v -1.000000 -0.924303 -20.285479
v 1.000000 0.935857 -20.285479
v 1.000000 0.935857 -16.753431
v -1.000000 0.935857 -16.753431
v -1.000000 0.935857 -20.285479
v 0.610991 -0.562494 -16.779438
v -0.610991 -0.562494 -16.779438
v 0.610991 -0.562494 -20.259472
v -0.610991 -0.562494 -20.259472
v 0.610991 0.574048 -16.779438
v -0.610991 0.574048 -16.779438
v 0.610991 0.574048 -20.259472
v -0.610991 0.574048 -20.259472
v -1.276442 -1.388886 -34.415062
v -1.276442 -1.388886 -40.305939
v -1.276442 -3.941770 -40.305939
v 1.276442 -1.388886 -40.305939
v 1.276442 -3.941770 -40.305939
v 1.276442 -3.941770 -34.415062
v -1.276442 -3.941770 -34.415062
v 1.276442 -1.388886 -34.415062
vn 1.000000 0.000000 0.000000
vn 0.000000 1.000000 0.000000
vn -1.000000 0.000000 0.000000
vn 0.000000 -1.000000 0.000000
vn 0.000000 0.027300 0.999600
vn 0.000000 -0.458600 -0.888600
vn 0.000000 0.000000 1.000000
vn 0.000000 0.000000 -1.000000
vn 0.000000 -0.962800 -0.270100
vn 0.000000 0.991800 0.128200
vn 0.000000 -0.021300 0.999800
vn 0.000000 0.021300 0.999800
vn -0.021300 0.000000 0.999800
vn 0.000000 -0.009400 1.000000
vn 0.021300 0.000000 0.999800
vn 0.000000 -0.009700 -1.000000
vn 0.000000 -0.999800 -0.020300
vn 0.066700 0.000000 -0.997800
vn -0.066700 0.000000 0.997800
vn 0.000000 -0.071700 -0.997400
vn 0.000000 -0.071700 0.997400
vn -0.066700 0.000000 -0.997800
vn 0.000000 0.071700 -0.997400
vn 0.066700 0.000000 0.997800
vn 0.000000 0.071700 0.997400
usemtl Material.001
s off
f 34//1 4//1 3//1 36//1
f 32//2 11//2 9//2 29//2
f 26//1 11//1 12//1 28//1
f 29//3 9//3 10//3 31//3
f 24//1 16//1 14//1 22//1
f 26//2 16//2 13//2 27//2
f 25//4 15//4 14//4 28//4
f 27//3 13//3 15//3 25//3
f 35//3 19//3 17//3 33//3
f 20//1 36//1 37//1 38//1
f 34//2 18//2 19//2 35//2
f 32//1 18//1 20//1 30//1
f 16//2 24//2 21//2 13//2
f 15//4 23//4 22//4 14//4
f 13//3 21//3 23//3 15//3
f 9//3 27//3 25//3 10//3
f 10//4 25//4 28//4 12//4
f 11//2 26//2 27//2 9//2
f 16//1 26//1 28//1 14//1
f 11//1 32//1 30//1 12//1
f 19//3 29//3 31//3 17//3
f 17//4 31//4 30//4 20//4
f 18//1 32//1 45//1 46//1
f 4//2 34//2 35//2 2//2
f 1//4 33//4 36//4 3//4
f 2//3 35//3 33//3 1//3
f 18//1 34//1 36//1 20//1
f 40//4 39//4 38//4 37//4
f 33//3 17//3 39//3 40//3
f 36//5 33//5 40//5 37//5
f 17//6 20//6 38//6 39//6
f 19//7 18//7 46//7 47//7
f 29//3 19//3 47//3 48//3
f 32//8 29//8 48//8 45//8
f 58//4 60//4 59//4 57//4
f 54//1 56//1 60//1 58//1
usemtl Material.002
f 2//3 1//3 5//3 6//3
f 8//7 6//7 5//7 7//7
f 1//9 3//9 7//9 5//9
f 4//10 2//10 6//10 8//10
f 3//1 4//1 8//1 7//1
usemtl Material.003
f 22//11 23//11 67//11 66//11
f 21//12 24//12 68//12 61//12
f 23//13 21//13 61//13 67//13
f 30//14 31//14 44//14 41//14
f 24//15 22//15 66//15 68//15
f 31//3 10//3 43//3 44//3
f 10//16 12//16 42//16 43//16
f 12//1 30//1 41//1 42//1
f 41//17 44//17 43//17 42//17
f 48//3 47//3 51//3 52//3
f 50//2 49//2 52//2 51//2
f 46//1 45//1 49//1 50//1
f 48//18 52//18 60//18 56//18
f 46//19 50//19 57//19 53//19
f 54//2 53//2 55//2 56//2
f 55//3 53//3 57//3 59//3
f 52//20 49//20 59//20 60//20
f 50//21 51//21 58//21 57//21
f 49//22 45//22 55//22 59//22
f 45//23 48//23 56//23 55//23
f 51//24 47//24 54//24 58//24
f 47//25 46//25 53//25 54//25
f 61//3 62//3 63//3 67//3
f 62//8 64//8 65//8 63//8
f 67//4 63//4 65//4 66//4
f 68//2 64//2 62//2 61//2
f 64//1 68//1 66//1 65//1
