# Blender v2.78 (sub 0) OBJ File: ''
# www.blender.org
mtllib AWP.mtl
o Cube_Cube.002
v 1.000000 -1.665327 -13.224382
v 1.000000 -1.665328 -9.695333
v 1.000000 -3.665328 -9.695333
v 1.000000 -3.665328 -13.224382
v 1.000000 -1.665327 -20.285479
v 1.000000 -1.665327 -23.817524
v -1.000000 -1.665327 -23.817524
v -1.000000 -1.665327 -20.285479
v 1.000000 -1.665327 -27.352262
v 1.000000 -3.665327 -23.817524
v 1.000000 -3.665327 -27.352262
v -1.000000 -3.665327 -23.817524
v -1.000000 -3.665327 -20.285479
v 1.000000 -1.665326 -34.409164
v 1.000000 -1.665327 -30.878620
v 1.000000 -3.665327 -30.878620
v 1.000000 -3.665327 -34.409164
v -1.000000 -1.665327 -30.878620
v -1.000000 -1.665327 -27.352262
v -1.000000 -3.665327 -27.352262
v -1.000000 -3.665327 -30.878620
v -1.000000 -1.665327 -13.224382
v -1.000000 -1.665327 -16.753431
v -1.000000 -3.665327 -16.753431
v -1.000000 -3.665328 -13.224382
v 1.000000 -3.665327 -16.753431
v 1.000000 -7.909142 -13.108671
v 1.000000 -7.909142 -14.563087
v 1.000000 -1.665327 -16.753431
v 1.000000 -3.665327 -20.285479
v -1.000000 -1.665326 -34.409164
v -1.000000 -3.665327 -34.409164
v 1.000000 -0.924302 -20.285479
v 1.000000 -0.924302 -16.753431
v -1.000000 -1.665328 -9.695333
v -1.000000 -3.665328 -9.695333
v -1.000000 -7.909142 -13.108671
v -1.000000 -7.909142 -14.563087
v -1.000000 -0.924302 -16.753431
v -1.000000 -0.924302 -20.285479
v -0.610991 0.574049 -16.779438
v -0.610991 0.574049 -20.259472
v 0.610991 0.574049 -20.259472
v 0.610991 0.574049 -16.779438
v -0.610991 -0.562493 -16.779438
v -0.610991 -0.562493 -20.259472
v -1.000000 -6.384382 -0.002623
v -1.000000 -2.918104 -0.002623
v 1.000000 -2.918104 -0.002623
v 1.000000 -6.384382 -0.002623
v -1.276442 -3.941769 -34.415062
v 1.276442 -3.941769 -34.415062
v 1.276442 -1.388884 -34.415062
v -1.276442 -1.388884 -34.415062
v -1.000000 -6.272622 -20.310049
v 1.000000 -6.272622 -20.310049
v -1.000000 -6.202025 -23.792953
v 1.000000 -6.202025 -23.792953
v -1.000000 0.935858 -16.753431
v -1.000000 0.935858 -20.285479
v 1.000000 0.935858 -16.753431
v 1.000000 0.935858 -20.285479
v 0.610991 -0.562493 -16.779438
v 0.610991 -0.562493 -20.259472
v -1.276442 -1.388884 -40.305939
v -1.276442 -3.941768 -40.305939
v 1.276442 -1.388884 -40.305939
v 1.276442 -3.941768 -40.305939
vn 0.0000 -0.0213 0.9998
vn 0.0000 0.0213 0.9998
vn -0.0213 0.0000 0.9998
vn 0.0000 -0.0094 1.0000
vn 0.0213 0.0000 0.9998
vn -1.0000 0.0000 0.0000
vn 0.0000 -0.0097 -1.0000
vn 1.0000 0.0000 0.0000
vn 0.0000 -0.9998 -0.0203
vn 0.0000 1.0000 0.0000
vn 0.0667 0.0000 -0.9978
vn -0.0667 0.0000 0.9978
vn 0.0000 -0.0717 -0.9974
vn 0.0000 -0.0717 0.9974
vn -0.0667 0.0000 -0.9978
vn 0.0000 0.0717 -0.9974
vn 0.0667 0.0000 0.9978
vn 0.0000 0.0717 0.9974
vn 0.0000 0.0000 -1.0000
vn 0.0000 -1.0000 -0.0000
vn 0.0000 -0.0000 1.0000
vn 0.0000 -0.9628 -0.2701
vn 0.0000 0.9918 0.1282
vn 0.0000 0.0273 0.9996
vn 0.0000 -0.4586 -0.8886
usemtl Material.007
s 1
f 32//1 52//1 17//1
f 14//2 54//2 31//2
f 31//3 51//3 32//3
f 13//4 56//4 30//4
f 17//5 53//5 14//5
f 13//6 57//6 55//6
f 10//7 57//7 12//7
f 30//8 58//8 10//8
f 55//9 58//9 56//9
f 39//6 60//6 40//6
f 62//10 59//10 61//10
f 33//8 61//8 34//8
f 60//11 46//11 40//11
f 61//12 63//12 34//12
f 63//10 46//10 45//10
f 64//6 44//6 43//6
f 62//13 42//13 60//13
f 59//14 44//14 61//14
f 33//15 43//15 62//15
f 40//16 64//16 33//16
f 39//17 41//17 59//17
f 34//18 45//18 39//18
f 65//6 51//6 54//6
f 67//19 66//19 65//19
f 66//20 52//20 51//20
f 67//10 54//10 53//10
f 53//8 68//8 67//8
f 32//1 51//1 52//1
f 14//2 53//2 54//2
f 31//3 54//3 51//3
f 13//4 55//4 56//4
f 17//5 52//5 53//5
f 13//6 12//6 57//6
f 10//7 58//7 57//7
f 30//8 56//8 58//8
f 55//9 57//9 58//9
f 39//6 59//6 60//6
f 62//10 60//10 59//10
f 33//8 62//8 61//8
f 60//11 42//11 46//11
f 61//12 44//12 63//12
f 63//10 64//10 46//10
f 64//6 63//6 44//6
f 62//13 43//13 42//13
f 59//14 41//14 44//14
f 33//15 64//15 43//15
f 40//16 46//16 64//16
f 39//17 45//17 41//17
f 34//18 63//18 45//18
f 65//6 66//6 51//6
f 67//19 68//19 66//19
f 66//20 68//20 52//20
f 67//10 65//10 54//10
f 53//8 52//8 68//8
usemtl Material.008
f 36//6 48//6 35//6
f 48//21 50//21 49//21
f 3//22 47//22 36//22
f 35//23 49//23 2//23
f 3//8 49//8 50//8
f 36//6 47//6 48//6
f 48//21 47//21 50//21
f 3//22 50//22 47//22
f 35//23 48//23 49//23
f 3//8 2//8 49//8
usemtl Material.009
f 2//8 4//8 1//8
f 6//10 8//10 5//10
f 6//8 11//8 9//8
f 7//6 13//6 8//6
f 15//8 17//8 14//8
f 15//10 19//10 9//10
f 21//20 11//20 20//20
f 18//6 20//6 19//6
f 23//6 25//6 22//6
f 4//8 28//8 26//8
f 29//10 22//10 1//10
f 29//8 30//8 5//8
f 14//10 18//10 15//10
f 32//20 16//20 21//20
f 31//6 21//6 18//6
f 19//6 12//6 7//6
f 20//20 10//20 12//20
f 9//10 7//10 6//10
f 9//8 16//8 15//8
f 5//8 10//8 6//8
f 8//6 24//6 23//6
f 13//20 26//20 24//20
f 5//8 34//8 29//8
f 1//10 35//10 2//10
f 25//20 3//20 36//20
f 35//6 25//6 36//6
f 1//8 26//8 29//8
f 38//20 27//20 37//20
f 25//6 38//6 37//6
f 25//24 27//24 4//24
f 26//25 38//25 24//25
f 29//21 39//21 23//21
f 23//6 40//6 8//6
f 8//19 33//19 5//19
f 42//20 44//20 41//20
f 46//8 41//8 45//8
f 2//8 3//8 4//8
f 6//10 7//10 8//10
f 6//8 10//8 11//8
f 7//6 12//6 13//6
f 15//8 16//8 17//8
f 15//10 18//10 19//10
f 21//20 16//20 11//20
f 18//6 21//6 20//6
f 23//6 24//6 25//6
f 4//8 27//8 28//8
f 29//10 23//10 22//10
f 29//8 26//8 30//8
f 14//10 31//10 18//10
f 32//20 17//20 16//20
f 31//6 32//6 21//6
f 19//6 20//6 12//6
f 20//20 11//20 10//20
f 9//10 19//10 7//10
f 9//8 11//8 16//8
f 5//8 30//8 10//8
f 8//6 13//6 24//6
f 13//20 30//20 26//20
f 5//8 33//8 34//8
f 1//10 22//10 35//10
f 25//20 4//20 3//20
f 35//6 22//6 25//6
f 1//8 4//8 26//8
f 38//20 28//20 27//20
f 25//6 24//6 38//6
f 25//24 37//24 27//24
f 26//25 28//25 38//25
f 29//21 34//21 39//21
f 23//6 39//6 40//6
f 8//19 40//19 33//19
f 42//20 43//20 44//20
f 46//8 42//8 41//8
