# Blender v2.75 (sub 0) OBJ File: ''
# www.blender.org
mtllib GRENADE.mtl
o Cube_Cube.001
v -0.000000 0.000000 -1.960524
v 1.960524 0.000000 -0.000000
v 0.000000 0.000000 1.960524
v -1.960524 0.000000 0.000000
v 0.000000 -1.960524 0.000000
v -1.470393 0.000000 -1.470393
v -0.000000 1.470393 -1.470393
v 1.470393 0.000000 -1.470393
v -0.000000 -1.470393 -1.470393
v 1.470393 1.470393 -0.000000
v 1.470393 0.000000 1.470393
v 1.470393 -1.470393 -0.000000
v 0.000000 1.470393 1.470393
v -1.470393 0.000000 1.470393
v 0.000000 -1.470393 1.470393
v -1.470393 1.470393 0.000000
v -1.470393 -1.470393 0.000000
v -1.089180 -1.089180 -1.089180
v -1.089180 1.089180 -1.089180
v 1.089180 -1.089180 -1.089180
v 1.089180 1.089180 -1.089180
v -1.089180 -1.089180 1.089180
v -1.089180 1.089180 1.089180
v 1.089180 -1.089180 1.089180
v 1.089180 1.089180 1.089180
v -0.357489 2.534451 -0.504893
v 0.357489 2.534451 -0.504893
v 0.357489 3.212600 0.506212
v -0.357489 3.212600 0.506212
v -0.357489 2.500117 -1.317658
v 0.357489 2.500117 -1.317658
v 0.357489 3.185675 -0.446872
v -0.357489 3.185675 -0.446872
v -0.357489 2.513610 -1.589987
v 0.357489 2.513610 -1.589987
v 0.357489 3.127700 -1.253032
v -0.357489 3.127700 -1.253032
v -0.357489 1.383641 -1.816193
v 0.357489 1.383641 -1.816193
v -0.357489 1.397134 -2.048739
v 0.357489 1.397134 -2.048739
v -0.357489 0.162059 -2.045065
v 0.357489 0.162059 -2.045065
v -0.357489 0.175552 -2.259346
v 0.357489 0.175552 -2.259346
v -0.357489 -1.033295 -2.105536
v 0.357489 -1.033295 -2.105536
v -0.357489 -0.528238 -2.187629
v 0.357489 -0.528238 -2.187629
v -0.357489 1.953370 0.535560
v 0.357489 1.907058 -0.514809
v -0.357489 1.907058 -0.514809
v 0.357489 1.953370 0.535560
vn -0.289200 0.404800 -0.867500
vn -0.867500 0.404800 -0.289200
vn 0.289200 -0.404800 -0.867500
vn -0.404800 -0.289200 -0.867500
vn -0.867500 0.404800 0.289200
vn -0.289200 0.404800 0.867500
vn 0.867500 -0.404800 0.289200
vn 0.867500 -0.289200 -0.404800
vn 0.289200 0.404800 0.867500
vn 0.289200 0.404800 -0.867500
vn -0.289200 -0.404800 0.867500
vn 0.404800 -0.289200 0.867500
vn 0.867500 0.289200 -0.404800
vn 0.867500 0.404800 0.289200
vn -0.867500 -0.404800 -0.289200
vn -0.867500 -0.289200 0.404800
vn -0.289200 -0.867500 -0.404800
vn 0.404800 -0.867500 -0.289200
vn 0.289200 -0.867500 0.404800
vn -0.404800 -0.867500 0.289200
vn -0.496300 0.750500 -0.436400
vn -0.381200 0.923600 -0.040700
vn -0.527100 0.727600 0.439100
vn -0.440000 0.718000 0.539200
vn 0.496300 0.750500 -0.436400
vn 0.381200 0.923600 -0.040700
vn 0.437100 0.745000 -0.503900
vn 0.440000 0.718000 0.539200
vn 0.000000 0.909500 -0.415600
vn -0.437100 0.745000 -0.503900
vn 0.527100 0.727600 0.439100
vn 0.000000 0.888400 0.459000
vn -0.404800 0.289200 -0.867500
vn -0.867500 0.289200 -0.404800
vn 0.404800 -0.289200 -0.867500
vn -0.289200 -0.404800 -0.867500
vn -0.867500 0.289200 0.404800
vn -0.404800 0.289200 0.867500
vn 0.867500 -0.289200 0.404800
vn 0.867500 -0.404800 -0.289200
vn 0.404800 0.289200 0.867500
vn 0.404800 0.289200 -0.867500
vn -0.404800 -0.289200 0.867500
vn 0.289200 -0.404800 0.867500
vn 0.867500 0.404800 -0.289200
vn 0.867500 0.289200 0.404800
vn -0.867500 -0.289200 -0.404800
vn -0.867500 -0.404800 0.289200
vn -0.404800 -0.867500 -0.289200
vn 0.289200 -0.867500 -0.404800
vn 0.404800 -0.867500 0.289200
vn -0.289200 -0.867500 0.404800
vn -1.000000 0.000000 0.000000
vn 1.000000 0.000000 -0.000000
vn -0.000000 0.999600 -0.028200
vn 0.000000 0.023300 0.999700
vn 0.000000 0.015800 -0.999900
vn 0.000000 -0.050500 0.998700
vn 0.000000 -0.999100 0.042200
vn 0.000000 -0.407700 0.913100
vn 0.000000 -0.184200 0.982900
vn 0.000000 0.481000 -0.876700
vn 0.000000 0.997400 -0.071700
vn 0.000000 0.169900 -0.985500
vn 0.000000 -0.160400 -0.987000
vn 0.000000 0.380100 -0.925000
vn 0.000000 -0.101400 -0.994800
usemtl Material.002
s off
f 1//1 6//1 19//1
f 19//2 6//2 4//2
f 1//3 8//3 20//3
f 1//4 9//4 18//4
f 4//5 14//5 23//5
f 23//6 14//6 3//6
f 2//7 11//7 24//7
f 2//8 12//8 20//8
f 3//9 11//9 25//9
f 21//10 8//10 1//10
f 3//11 14//11 22//11
f 3//12 15//12 24//12
f 21//13 10//13 2//13
f 25//14 11//14 2//14
f 4//15 6//15 18//15
f 4//16 17//16 22//16
f 5//17 17//17 18//17
f 5//18 9//18 20//18
f 5//19 12//19 24//19
f 5//20 15//20 22//20
f 19//21 16//21 52//21
f 16//22 50//22 52//22
f 23//23 50//23 16//23
f 23//24 13//24 50//24
f 10//25 21//25 51//25
f 53//26 10//26 51//26
f 51//27 21//27 7//27
f 53//28 13//28 25//28
f 51//29 7//29 52//29
f 19//30 52//30 7//30
f 10//31 53//31 25//31
f 13//32 53//32 50//32
f 7//33 1//33 19//33
f 16//34 19//34 4//34
f 9//35 1//35 20//35
f 6//36 1//36 18//36
f 16//37 4//37 23//37
f 13//38 23//38 3//38
f 12//39 2//39 24//39
f 8//40 2//40 20//40
f 13//41 3//41 25//41
f 7//42 21//42 1//42
f 15//43 3//43 22//43
f 11//44 3//44 24//44
f 8//45 21//45 2//45
f 10//46 25//46 2//46
f 17//47 4//47 18//47
f 14//48 4//48 22//48
f 9//49 5//49 18//49
f 12//50 5//50 20//50
f 15//51 5//51 24//51
f 17//52 5//52 22//52
usemtl Material.003
f 52//53 29//53 26//53
f 52//53 50//53 29//53
f 28//54 27//54 32//54
f 51//54 27//54 53//54
f 29//53 33//53 26//53
f 32//55 33//55 29//55
f 53//56 28//56 29//56
f 53//54 27//54 28//54
f 28//55 32//55 29//55
f 50//56 53//56 29//56
usemtl Material.004
f 51//57 52//57 26//57
f 36//54 32//54 31//54
f 42//58 46//58 47//58
f 27//54 31//54 32//54
f 26//59 30//59 31//59
f 38//60 39//60 31//60
f 31//54 35//54 36//54
f 30//53 26//53 33//53
f 33//53 37//53 30//53
f 34//53 30//53 37//53
f 39//61 38//61 42//61
f 35//54 31//54 39//54
f 34//53 40//53 38//53
f 40//53 44//53 42//53
f 41//54 39//54 43//54
f 35//62 34//62 37//62
f 32//63 36//63 37//63
f 43//54 47//54 49//54
f 42//53 44//53 48//53
f 45//64 44//64 40//64
f 49//65 47//65 46//65
f 35//66 41//66 40//66
f 49//67 48//67 44//67
f 27//57 51//57 26//57
f 43//58 42//58 47//58
f 27//59 26//59 31//59
f 30//60 38//60 31//60
f 43//61 39//61 42//61
f 41//54 35//54 39//54
f 30//53 34//53 38//53
f 38//53 40//53 42//53
f 45//54 41//54 43//54
f 36//62 35//62 37//62
f 33//63 32//63 37//63
f 45//54 43//54 49//54
f 46//53 42//53 48//53
f 41//64 45//64 40//64
f 48//65 49//65 46//65
f 34//66 35//66 40//66
f 45//67 49//67 44//67
