# Blender v2.75 (sub 0) OBJ File: ''
# www.blender.org
mtllib SHOVEL.mtl
o Cube_Cube.001
v -0.361997 10.404091 0.408740
v -0.103566 -0.750067 -0.420398
v -0.076366 10.404091 -0.540630
v -0.318341 -0.750067 0.293463
v 0.617501 10.404091 -0.331871
v 0.582072 -0.750067 -0.214115
v 0.331870 10.404091 0.617499
v 0.367298 -0.750067 0.499746
v -0.068138 -1.471047 -0.538153
v -0.353769 -1.471047 0.411217
v 0.617500 -1.471047 -0.331869
v 0.331870 -1.471047 0.617501
v -0.773675 -0.750066 1.806888
v -0.088036 -0.750066 2.013171
v 1.037406 -0.750067 -1.727540
v 0.351768 -0.750067 -1.933823
v -0.773675 -1.471047 1.806888
v -0.088036 -1.471047 2.013171
v 1.037406 -1.471047 -1.727540
v 0.351768 -1.471047 -1.933823
v 0.095192 14.967155 0.546291
v 0.380823 14.967155 -0.403080
v 0.331870 14.967155 0.617499
v 0.617501 14.967155 -0.331872
v -0.611857 10.404091 1.940120
v -1.010167 10.404091 1.820283
v 0.161928 10.404091 -2.075490
v 0.560238 10.404091 -1.955653
v -0.554144 13.444431 1.748294
v -0.952453 13.444431 1.628457
v 0.104215 13.444431 -1.883664
v 0.502525 13.444431 -1.763828
v -0.107387 -0.750067 0.356931
v 0.300333 10.404091 -0.427295
v 0.107387 -0.750067 -0.356930
v -0.142816 -1.471047 0.474686
v 0.142815 -1.471047 -0.474685
v -0.562721 -0.750066 1.870356
v 0.562721 -0.750067 -1.870355
v -0.562721 -1.471047 1.870356
v 0.562721 -1.471047 -1.870355
v 0.014702 10.404091 0.522075
v 0.367298 10.049710 0.499745
v 0.582073 10.049710 -0.214116
v -0.111533 10.049710 -0.422797
v -0.326307 10.049710 0.291064
v 0.045126 10.049710 0.402815
v 0.259900 10.049710 -0.311046
v -0.611857 10.112493 1.940120
v -1.010167 10.112493 1.820283
v 0.161928 10.112493 -2.075490
v 0.560238 10.112493 -1.955653
vn 0.957600 0.000000 0.288100
vn 0.000000 1.000000 0.000000
vn -0.216400 0.660100 0.719300
vn 0.287500 0.065700 -0.955500
vn -0.287500 0.065700 0.955500
vn 0.787200 0.000000 0.616800
vn 0.999200 0.021200 -0.035200
vn 0.216400 0.660100 -0.719300
vn -0.957600 -0.000800 -0.288100
vn -0.272200 -0.327800 0.904700
vn 0.000000 -1.000000 0.000000
vn 0.272200 0.327800 -0.904700
vn -0.957400 0.018400 -0.288100
vn -0.985800 0.016500 0.167200
vn -0.729900 0.016500 -0.683400
vn -0.272200 0.327800 0.904700
vn 0.288100 -0.000000 -0.957600
vn -0.288100 0.000000 0.957600
vn 0.999400 0.000000 -0.035200
vn 0.814000 0.000000 0.580800
vn -0.010900 -0.999300 0.036200
vn -0.792200 0.132500 -0.595700
vn -0.911300 0.044200 -0.409300
vn -0.985900 0.044200 -0.161500
vn 0.010900 -0.999300 -0.036200
vn 0.813800 0.021200 0.580700
vn 0.996800 -0.000000 -0.080000
vn -0.996200 -0.024200 0.083700
vn -0.784700 -0.024200 -0.619500
vn 0.994400 -0.104800 -0.016200
vn 0.820300 -0.104800 0.562200
vn -0.784900 0.000000 -0.619600
vn -0.908800 0.000000 -0.417300
vn -0.988200 0.000000 -0.153400
vn -0.957600 -0.000000 -0.288100
usemtl Material.002
s off
f 44//1 5//1 7//1
f 21//2 23//2 24//2
f 5//1 24//1 23//1
f 21//3 30//3 29//3
f 28//4 27//4 31//4
f 26//5 25//5 29//5
f 7//6 23//6 29//6
f 34//2 3//2 1//2
f 5//7 28//7 32//7
f 22//8 24//8 32//8
f 1//9 3//9 45//9
f 43//10 7//10 42//10
f 34//2 5//2 28//2
f 25//11 26//11 42//11
f 1//12 42//12 47//12
f 7//11 42//11 34//11
f 34//13 42//13 21//13
f 34//14 22//14 31//14
f 30//15 21//15 42//15
f 3//16 45//16 48//16
f 34//16 48//16 44//16
f 52//17 51//17 27//17
f 50//18 49//18 25//18
f 52//19 28//19 5//19
f 7//20 25//20 49//20
f 49//21 50//21 47//21
f 42//22 47//22 50//22
f 1//23 46//23 50//23
f 47//21 50//21 46//21
f 26//2 42//2 1//2
f 34//2 27//2 3//2
f 51//24 45//24 3//24
f 52//25 44//25 48//25
f 51//25 48//25 45//25
f 43//1 44//1 7//1
f 22//2 21//2 24//2
f 7//1 5//1 23//1
f 23//3 21//3 29//3
f 32//4 28//4 31//4
f 30//5 26//5 29//5
f 25//26 7//26 29//26
f 42//2 34//2 1//2
f 24//27 5//27 32//27
f 31//8 22//8 32//8
f 46//9 1//9 45//9
f 47//10 43//10 42//10
f 27//2 34//2 28//2
f 7//11 25//11 42//11
f 46//12 1//12 47//12
f 5//11 7//11 34//11
f 22//13 34//13 21//13
f 27//28 34//28 31//28
f 26//29 30//29 42//29
f 34//16 3//16 48//16
f 5//16 34//16 44//16
f 28//17 52//17 27//17
f 26//18 50//18 25//18
f 44//30 52//30 5//30
f 43//31 7//31 49//31
f 43//21 49//21 47//21
f 26//32 42//32 50//32
f 26//33 1//33 50//33
f 27//34 51//34 3//34
f 51//25 52//25 48//25
usemtl Material.001
f 9//11 20//11 41//11
f 37//11 36//11 10//11
f 8//1 12//1 11//1
f 2//35 9//35 10//35
f 4//2 13//2 38//2
f 13//18 17//18 40//18
f 15//17 19//17 41//17
f 36//11 12//11 18//11
f 11//1 19//1 15//1
f 10//35 17//35 13//35
f 6//2 15//2 39//2
f 9//35 2//35 16//35
f 12//1 8//1 14//1
f 48//17 44//17 6//17
f 45//17 48//17 35//17
f 35//2 39//2 16//2
f 36//11 40//11 17//11
f 39//17 41//17 20//17
f 38//18 40//18 18//18
f 8//2 33//2 38//2
f 12//11 36//11 37//11
f 11//11 37//11 41//11
f 33//18 47//18 46//18
f 8//18 43//18 47//18
f 4//9 46//9 45//9
f 6//1 44//1 43//1
f 37//11 9//11 41//11
f 9//11 37//11 10//11
f 6//1 8//1 11//1
f 4//35 2//35 10//35
f 33//2 4//2 38//2
f 38//18 13//18 40//18
f 39//17 15//17 41//17
f 40//11 36//11 18//11
f 6//1 11//1 15//1
f 4//35 10//35 13//35
f 35//2 6//2 39//2
f 20//35 9//35 16//35
f 18//1 12//1 14//1
f 35//17 48//17 6//17
f 2//17 45//17 35//17
f 2//2 35//2 16//2
f 10//11 36//11 17//11
f 16//17 39//17 20//17
f 14//18 38//18 18//18
f 14//2 8//2 38//2
f 11//11 12//11 37//11
f 19//11 11//11 41//11
f 4//18 33//18 46//18
f 33//18 8//18 47//18
f 2//9 4//9 45//9
f 8//1 6//1 43//1
