# This file uses centimeters as units for non-parametric coordinates.

mtllib MEDICBAG.mtl
v -1.242873 -0.001858 2.095539
v 1.242873 -0.001858 2.095539
v -1.242873 1.130662 2.095539
v 1.242873 1.130662 2.095539
v -1.242873 1.130662 -2.095539
v 1.242873 1.130662 -2.095539
v -1.242873 -0.001858 -2.095539
v 1.242873 -0.001858 -2.095539
v -1.069658 1.266365 1.833185
v 1.069658 1.266365 1.833185
v 1.069658 1.266365 -1.833185
v -1.069658 1.266365 -1.833185
v -1.069658 1.266365 0.317962
v 1.069658 1.266365 0.317962
v -1.069658 1.266365 -0.317962
v 1.069658 1.266365 -0.317962
v 0.284647 1.266365 1.833185
v -0.284647 1.266365 1.833185
v -0.212490 1.266365 0.229457
v -0.212490 1.266365 -0.229457
v -0.284647 1.266365 -1.833185
v 0.212490 1.266365 0.229457
v 0.212490 1.266365 -0.229457
v 0.284647 1.266365 -1.833185
v -0.212490 1.266365 0.746505
v 0.212490 1.266365 0.746505
v -0.212490 1.266365 -0.746505
v 0.212490 1.266365 -0.746505
v 1.242873 0.931827 2.095539
v -1.242873 0.931827 2.095539
v -1.242873 0.931827 -2.095539
v 1.242873 0.931827 -2.095539
v 0.644809 1.266365 -0.229457
v 0.644809 1.266365 0.229457
v -0.644809 1.266365 -0.229457
v -0.644809 1.266365 0.229457
v 1.242873 0.166691 2.095539
v -1.242873 0.166691 2.095539
v -1.242873 0.166691 -2.095539
v 1.242873 0.166691 -2.095539
vt 0.375000 0.000000
vt 0.625000 0.000000
vt 0.375000 0.250000
vt 0.625000 0.250000
vt 0.375000 0.500000
vt 0.625000 0.500000
vt 0.375000 0.750000
vt 0.625000 0.750000
vt 0.375000 1.000000
vt 0.625000 1.000000
vt 0.875000 0.000000
vt 0.875000 0.250000
vt 0.125000 0.000000
vt 0.125000 0.250000
vt 0.375000 0.250000
vt 0.625000 0.250000
vt 0.625000 0.500000
vt 0.375000 0.500000
vt 0.375000 0.351694
vt 0.625000 0.345796
vt 0.375000 0.400481
vt 0.625000 0.406085
vt 0.555539 0.250000
vt 0.433414 0.250000
vt 0.461201 0.349660
vt 0.461640 0.402423
vt 0.462529 0.500000
vt 0.540140 0.347798
vt 0.540364 0.404187
vt 0.540817 0.500000
vt 0.446669 0.297538
vt 0.548083 0.297352
vt 0.462158 0.459299
vt 0.540610 0.456105
vt 0.625000 0.206108
vt 0.375000 0.206108
vt 0.125000 0.206108
vt 0.375000 0.543892
vt 0.625000 0.543892
vt 0.875000 0.206108
vt 0.593452 0.405377
vt 0.596893 0.346459
vt 0.411167 0.401291
vt 0.413890 0.350776
vt 0.625000 0.037207
vt 0.375000 0.037207
vt 0.125000 0.037207
vt 0.375000 0.712793
vt 0.625000 0.712793
vt 0.875000 0.037207
vn 0.000000 0.000000 1.000000
vn 0.000000 0.000000 1.000000
vn 0.000000 0.000000 1.000000
vn 0.000000 0.000000 1.000000
vn 0.000000 1.000000 0.000000
vn 0.000000 1.000000 0.000000
vn 0.000000 1.000000 0.000000
vn 0.000000 1.000000 0.000000
vn 0.000000 1.000000 0.000000
vn 0.000000 1.000000 0.000000
vn 0.000000 0.000000 -1.000000
vn 0.000000 0.000000 -1.000000
vn 0.000000 0.000000 -1.000000
vn 0.000000 0.000000 -1.000000
vn 0.000000 -1.000000 0.000000
vn 0.000000 -1.000000 0.000000
vn 0.000000 -1.000000 0.000000
vn 0.000000 -1.000000 0.000000
vn 1.000000 0.000000 0.000000
vn 1.000000 0.000000 0.000000
vn 1.000000 0.000000 0.000000
vn 1.000000 0.000000 0.000000
vn -1.000000 0.000000 0.000000
vn -1.000000 0.000000 0.000000
vn -1.000000 0.000000 0.000000
vn -1.000000 0.000000 0.000000
vn 0.000000 0.888213 0.459432
vn 0.000000 0.888213 0.459432
vn 0.000000 0.888213 0.459432
vn 0.000000 0.888213 0.459432
vn 0.000000 0.888213 0.459432
vn 0.000000 0.888213 0.459432
vn 0.616714 0.787187 0.000000
vn 0.616714 0.787187 0.000000
vn 0.616714 0.787187 0.000000
vn 0.616714 0.787187 0.000000
vn 0.616714 0.787187 0.000000
vn 0.616714 0.787187 0.000000
vn 0.000000 0.888213 -0.459432
vn 0.000000 0.888213 -0.459432
vn 0.000000 0.888213 -0.459432
vn 0.000000 0.888213 -0.459432
vn 0.000000 0.888213 -0.459432
vn 0.000000 0.888213 -0.459432
vn -0.616714 0.787187 0.000000
vn -0.616714 0.787187 0.000000
vn -0.616714 0.787187 0.000000
vn -0.616714 0.787187 0.000000
vn -0.616714 0.787187 0.000000
vn -0.616714 0.787187 0.000000
vn 0.000000 1.000000 -0.000000
vn 0.000000 1.000000 -0.000000
vn 0.000000 1.000000 -0.000000
vn 0.000000 1.000000 -0.000000
vn 0.000000 1.000000 -0.000000
vn 0.000000 1.000000 -0.000000
vn 0.000000 1.000000 0.000000
vn 0.000000 1.000000 0.000000
vn 0.000000 1.000000 0.000000
vn 0.000000 1.000000 0.000000
vn 0.000000 1.000000 0.000000
vn 0.000000 1.000000 0.000000
vn 0.000000 1.000000 0.000000
vn 0.000000 1.000000 0.000000
vn 0.000000 1.000000 0.000000
vn 0.000000 1.000000 0.000000
vn 0.000000 1.000000 0.000000
vn 0.000000 1.000000 0.000000
vn 0.000000 1.000000 0.000000
vn 0.000000 1.000000 0.000000
vn 0.000000 1.000000 0.000000
vn 0.000000 1.000000 0.000000
vn 0.000000 1.000000 0.000000
vn 0.000000 1.000000 0.000000
vn 0.000000 1.000000 0.000000
vn 0.000000 1.000000 0.000000
vn 0.000000 1.000000 0.000000
vn 0.000000 1.000000 0.000000
vn 0.000000 1.000000 0.000000
vn 0.000000 1.000000 0.000000
vn 0.000000 1.000000 0.000000
vn 0.000000 1.000000 0.000000
vn 0.000000 1.000000 0.000000
vn 0.000000 1.000000 0.000000
vn 0.000000 1.000000 0.000000
vn 0.000000 1.000000 0.000000
vn 0.000000 1.000000 0.000000
vn 0.000000 1.000000 0.000000
vn 0.000000 1.000000 0.000000
vn 0.000000 1.000000 0.000000
vn 0.000000 1.000000 0.000000
vn 0.000000 1.000000 0.000000
vn 0.000000 1.000000 0.000000
vn 0.000000 1.000000 0.000000
vn 0.000000 1.000000 0.000000
vn 0.000000 1.000000 0.000000
vn 0.000000 0.000000 1.000000
vn 0.000000 0.000000 1.000000
vn 0.000000 0.000000 1.000000
vn 0.000000 0.000000 1.000000
vn -1.000000 0.000000 0.000000
vn -1.000000 0.000000 0.000000
vn -1.000000 0.000000 0.000000
vn -1.000000 0.000000 0.000000
vn 0.000000 0.000000 -1.000000
vn 0.000000 0.000000 -1.000000
vn 0.000000 0.000000 -1.000000
vn 0.000000 0.000000 -1.000000
vn 1.000000 0.000000 0.000000
vn 1.000000 0.000000 0.000000
vn 1.000000 0.000000 0.000000
vn 1.000000 0.000000 0.000000
vn 0.000000 1.000000 0.000000
vn 0.000000 1.000000 0.000000
vn 0.000000 1.000000 0.000000
vn 0.000000 1.000000 0.000000
usemtl lambert3SG
f 1/1/1 2/2/2 37/45/3 38/46/4
usemtl lambert2SG
f 15/21/5 35/43/6 20/26/7 27/33/8 21/27/9 12/18/10
usemtl lambert3SG
f 39/48/11 40/49/12 8/8/13 7/7/14
usemtl lambert2SG
f 7/7/15 8/8/16 2/10/17 1/9/18
usemtl lambert3SG
f 2/2/19 8/11/20 40/50/21 37/45/22
f 7/13/23 1/1/24 38/46/25 39/47/26
f 3/3/27 4/4/28 10/16/29 17/23/30 18/24/31 9/15/32
f 4/4/33 6/6/34 11/17/35 16/22/36 14/20/37 10/16/38
f 6/6/39 5/5/40 12/18/41 21/27/42 24/30/43 11/17/44
f 5/5/45 3/3/46 9/15/47 13/19/48 15/21/49 12/18/50
usemtl lambert2SG
f 9/15/51 18/24/52 25/31/53 19/25/54 36/44/55 13/19/56
usemtl lambert3SG
f 35/43/57 36/44/58 19/25/59 20/26/60
f 19/25/61 25/31/62 26/32/63 22/28/64
f 20/26/65 19/25/66 22/28/67 23/29/68
usemtl lambert2SG
f 21/27/69 27/33/70 28/34/71 24/30/72
f 22/28/73 26/32/74 17/23/75 10/16/76 14/20/77 34/42/78
f 33/41/79 34/42/80 14/20/81 16/22/82
f 24/30/83 28/34/84 23/29/85 33/41/86 16/22/87 11/17/88
f 26/32/89 25/31/90 18/24/91 17/23/92
usemtl lambert3SG
f 28/34/93 27/33/94 20/26/95 23/29/96
f 30/36/97 29/35/98 4/4/99 3/3/100
f 31/37/101 30/36/102 3/3/103 5/14/104
f 5/5/105 6/6/106 32/39/107 31/38/108
f 29/35/109 32/40/110 6/12/111 4/4/112
f 23/29/113 22/28/114 34/42/80 33/41/79
usemtl lambert2SG
f 13/19/115 36/44/58 35/43/57 15/21/116
f 38/46/4 37/45/3 29/35/98 30/36/97
f 39/47/26 38/46/25 30/36/102 31/37/101
f 31/38/108 32/39/107 40/49/12 39/48/11
f 37/45/22 40/50/21 32/40/110 29/35/109
